<svg xmlns="http://www.w3.org/2000/svg" xmlns:xlink="http://www.w3.org/1999/xlink" version="1.1" width="16" height="16" viewBox="0 0 18 18"><path fill="#fff" d="M2,0 H16 A2,2 0 0 1 18,2 V16 A2,2 0 0 1 16,18 H11.56 C11.24,17.93 11.23,17.32 11.23,17.11 L11.24,14.64 C11.24,13.8 10.95,13.25 10.63,12.97 C12.64,12.75 14.739999999999998,12 14.739999999999998,8.53 C14.739999999999998,7.550000000000001 14.39,6.74 13.82,6.109999999999999 C13.91,5.8900000000000015 14.219999999999999,4.97 13.73,3.7300000000000004 C13.73,3.7300000000000004 12.97,3.5 11.25,4.66 C10.53,4.46 9.77,4.36 9,4.35 C8.24,4.36 7.460000000000001,4.46 6.75,4.66 C5.029999999999999,3.5 4.27,3.7300000000000004 4.27,3.7300000000000004 C3.7800000000000002,4.97 4.09,5.8900000000000015 4.18,6.109999999999999 C3.6100000000000003,6.74 3.26,7.550000000000001 3.26,8.53 C3.26,12 5.359999999999999,12.75 7.359999999999999,13 C7.1,13.2 6.870000000000001,13.600000000000001 6.789999999999999,14.18 C6.27,14.41 4.97,14.809999999999999 4.17,13.43 C4.17,13.43 3.6900000000000004,12.57 2.79,12.5 C2.79,12.5 1.9100000000000001,12.5 2.7300000000000004,13.05 C2.7300000000000004,13.05 3.3200000000000003,13.329999999999998 3.7300000000000004,14.370000000000001 C3.7300000000000004,14.370000000000001 4.25,16.12 6.76,15.579999999999998 L6.77,17.11 C6.77,17.32 6.75,17.93 6.43,18 H2 A2,2 0 0 1 0,16 V2 A2,2 0 0 1 2,0 z"/></svg>
