<?xml version="1.0" encoding="UTF-8"?>
<svg version="1.1" width="155" height="82" viewBox="0 0 155 82" xmlns="http://www.w3.org/2000/svg">
<path fill="#fff" d="m77.735 6.8754c-0.03369 0.067335-0.073901 0.13252-0.11955 0.19339-4.1075 5.4962-6.7978 12.129-7.7792 19.181l-0.382 2.7451-0.2467-2.7602c-0.061403-0.69059-0.09292-1.3914-0.09292-2.0831 0-6.7766 2.9631-13.211 8.1291-17.652l1.1889-1.0219-0.69771 1.3979zm-0.88084 11.397c-2.4045 5.953-3.5277 12.509-3.2468 18.959l0.047818 1.1011-0.62544-0.91091c-0.24724-0.36092-0.48742-0.73207-0.71293-1.1032-0.89823-1.4798-1.2976-3.1879-1.1547-4.9408 0.39613-4.8622 1.5101-9.5891 3.312-14.05 2.2453-5.5576 5.6002-10.663 9.7033-14.765 0.13041-0.12982 0.28908-0.23002 0.45971-0.29035 1.1971-0.42179 2.4366-0.74877 3.6836-0.97178l0.5673-0.10127-0.21844 0.52899c-0.076075 0.18477-0.19779 0.35122-0.35212 0.48158-4.947 4.1899-8.9111 9.7442-11.463 16.062zm4.6118 1.706c-2.8859 7.1074-3.8831 14.79-2.8843 22.218l0.10324 0.7687-0.61349-0.48104c-0.5385-0.42233-1.0629-0.87159-1.5584-1.3354-0.45754-0.42825-0.73195-1.002-0.7727-1.6166-0.45862-6.8925 0.6988-13.982 3.3467-20.503 2.8843-7.1025 7.4401-13.323 13.175-17.99 0.29234-0.22463 0.36353-0.24941 0.69826-0.24941 0.83302 0.0096963 1.6704 0.063026 2.4914 0.15837 0.12063 0.014006 0.2217 0.084035 0.27713 0.19285 0.054339 0.10666 0.051079 0.22625-0.0081509 0.32752-0.086399 0.14868-0.2016 0.27634-0.34179 0.37977-6.1186 4.5152-10.929 10.784-13.912 18.13zm8.8187-3.9135c0.37548 0 0.71293 0.15406 0.95093 0.43526 0.22007 0.25965 0.32495 0.58932 0.29506 0.92761s-0.19019 0.6448-0.4521 0.86297c-1.1091 0.92384-2.2828 1.6699-3.4174 2.3912-0.40809 0.25911-0.78303 0.52414-1.1455 0.78001-0.4608 0.32536-0.89605 0.63295-1.4112 0.94377-0.31951 0.19231-0.57654 0.28227-0.80911 0.28227-0.40428 0-0.77651-0.18261-1.021-0.50098-0.20758-0.26934-0.29615-0.60333-0.2505-0.94 0.045645-0.33668 0.22062-0.63565 0.49286-0.84088 0.67543-0.50959 1.3715-0.96155 2.0453-1.3979 0.2429-0.1573 0.48307-0.31298 0.71999-0.46973 1.2601-0.83442 1.5595-1.0327 3.1278-2.1795 0.25974-0.18962 0.57002-0.29412 0.87486-0.29412zm-8.6557 11.895c0.11357-0.31998 0.34668-0.57693 0.65587-0.72291 5.4089-2.5631 10.306-5.9772 14.555-10.148 0.24181-0.23702 0.56187-0.36792 0.90203-0.36792 0.34505 0 0.66837 0.13359 0.91127 0.37654 0.49775 0.49774 0.4934 1.3042-0.0086943 1.797-4.4531 4.3714-9.5849 7.9494-15.254 10.635-0.17443 0.082419-0.35972 0.12444-0.55154 0.12444-0.49177 0-0.94604-0.28389-1.158-0.72345-0.1478-0.30597-0.16628-0.65127-0.052166-0.97125zm0.70315 8.1831c-0.14346 0.052791-0.29289 0.079186-0.44395 0.079186-0.5347 0-1.0178-0.33398-1.2025-0.83173-0.119-0.31836-0.10542-0.66366 0.038037-0.97178 0.14291-0.30813 0.39885-0.54299 0.71999-0.66043 7.3896-2.7053 14.441-7.5561 20.96-14.418 0.24507-0.25803 0.57654-0.3997 0.93355-0.3997 0.32766 0 0.64011 0.12282 0.87866 0.34583 0.51459 0.48051 0.53904 1.2864 0.054339 1.7965-6.7924 7.1505-14.173 12.217-21.938 15.06zm27.022-12.598c-7.1831 8.7633-16.502 15.152-26.95 18.475-0.1277 0.04094-0.2592 0.06141-0.39178 0.06141-0.55915 0-1.0493-0.35499-1.2205-0.8829-0.10433-0.32267-0.075531-0.66689 0.080965-0.96909s0.42221-0.52576 0.74771-0.62918c9.9729-3.1723 18.875-9.2788 25.744-17.658 0.24453-0.29789 0.60751-0.46919 0.99604-0.46919 0.29724 0 0.57654 0.09804 0.80748 0.28442 0.26518 0.2144 0.43091 0.51821 0.46623 0.85597 0.03532 0.33775-0.06412 0.66904-0.27985 0.93192zm4.3303 3.1712c-3.218 4.2949-6.9782 8.1018-11.18 11.318-4.1895 3.2084-8.7339 5.7666-13.507 7.603-0.9004 0.34691-1.8432 0.52252-2.8023 0.52252-1.0221 0-2.0116-0.19877-2.9425-0.59147l-0.41298-0.17399 0.3043-0.32698c0.15867-0.17076 0.36299-0.29466 0.59067-0.35822 10.832-3.0263 20.741-9.9608 27.903-19.525 0.082052-0.11205 0.16574-0.22679 0.24942-0.34206 0.24018-0.33237 0.63033-0.5306 1.0433-0.5306 0.29778 0 0.57817 0.099656 0.81128 0.2882 0.51405 0.41532 0.60099 1.2104 0.19399 1.7717-0.074445 0.10235-0.14889 0.2047-0.22442 0.30759l-0.26898-0.16699 0.25702 0.18315-0.015215 0.021009zm1.0683 3.3727c0.17769-0.1002 0.39994-0.040401 0.526 0.12444 0.047275 0.061949 0.11792 0.19069 0.06901 0.36253l-0.020649 0.0738c-0.93463 3.2062-2.7892 6.1733-5.3633 8.5823-1.7964 1.6812-3.707 3.2418-5.679 4.6386-2.918 2.0669-6.2278 3.3091-9.5713 3.5919-0.015215 5.387e-4 -0.038581 0.001616-0.074988 0.001616-0.24724 0-0.51459-0.029089-0.62436-0.24564-0.044015-0.086728-0.048362-0.18854-0.011955-0.27904 0.046188-0.11528 0.15541-0.20685 0.32549-0.27096 8.0416-3.6927 14.965-9.3014 20.022-16.221 0.10813-0.14814 0.24344-0.2688 0.40265-0.35822zm1.4911-6.4588l0.015758 0.67766-0.53089-0.42718c-7.3287-5.8948-16.371-9.5131-25.46-10.189-0.68467-0.050636-1.2384-0.62272-1.2346-1.2751 0.0038037-0.69813 0.57817-1.2664 1.2797-1.2664 0.031517 0 0.063577 0.001616 0.09618 0.0037708 4.3178 0.31567 8.6301 1.2524 12.817 2.7839 4.1738 1.5266 8.1329 3.6108 11.768 6.1949 0.67435 0.47943 1.1009 1.2196 1.1705 2.0308 0.041298 0.48428 0.067924 0.97717 0.078792 1.4663zm-22.387-17.11c0.077162 0 0.15595 0.0070029 0.23311 0.021009 7.3369 1.3311 13.349 3.46 18.381 6.5078 0.95963 0.58124 1.7144 1.4668 2.1252 2.4925 0.24344 0.60817 0.46406 1.2357 0.65533 1.8655l0.29126 0.95778-0.79063-0.6211c-5.5627-4.3709-12.062-7.0519-21.073-8.6927-0.67815-0.1239-1.1683-0.752-1.0933-1.4011 0.074445-0.64427 0.6211-1.1296 1.2715-1.1296zm4.3895-1.4237c-0.68087-0.13036-1.1683-0.76493-1.0852-1.414 0.080422-0.63619 0.62707-1.1156 1.271-1.1156 0.080965 0 0.16302 0.0080803 0.24344 0.023163 0.28854 0.055484 0.57436 0.11151 0.85801 0.16969 2.5925 0.52953 5.016 1.5256 7.2043 2.9611 1.2938 0.84897 2.48 1.8374 3.525 2.9385l1.3916 1.4663-1.7758-0.97717c-2.3676-1.3031-5.8295-2.9412-11.632-4.052zm-97.73 72.904h3.7021v-14.951h-3.7021v-3.4821h8.0219v3.0728c2.3143-2.0485 5.1942-3.6359 8.4852-3.6359 3.9588 0 6.4797 2.356 6.4797 6.9622v12.032h3.7543v3.4821h-11.878v-3.4821h3.7543v-11.57c0-2.4059-0.87439-3.8914-3.4454-3.8914-2.6232 0-5.142 1.5873-7.0452 3.1746v12.287h3.7021v3.4821h-11.828v-3.48zm28.152-7.4234c0-6.8084 3.9087-11.57 10.491-11.57 6.8908 0 9.7707 5.325 9.7707 10.854 0 0.61498 0 1.2798-0.10226 1.9447h-15.737c0.41111 4.3007 2.8799 6.8084 7.4063 6.8084 2.8277 0 5.2964-1.0243 7.2518-2.0984v3.4821c-1.851 1.0762-4.4221 2.0485-7.8675 2.0485-7.3562 0-11.213-4.7619-11.213-11.469zm4.4221-1.9467h11.726c-0.2066-3.1227-1.5944-6.3492-5.6053-6.3492-3.7543 0.0020776-5.7096 2.8173-6.1208 6.3492zm18.081 9.3701h3.7543v-29.234h-3.7543v-3.4821h8.1262v32.717h3.5477v3.4821h-11.674v-3.4821zm12.815-0.56304l-5.2464-6.7066v-0.20569l7.3541-7.6291h-3.5477v-3.3284h11.263v3.3782h-3.0844l-7.1997 7.5252 3.7543 4.6601c1.4921 1.8948 2.9821 3.4302 5.0919 3.4302 0.41111 0 0.87439-0.051941 1.3377-0.15374v3.2245c-0.66779 0.20569-1.3878 0.35943-2.3665 0.35943-3.0885 0.0020777-5.2484-1.739-7.3562-4.5542zm15.257-2.356v-12.032h-2.3686v-3.4821h6.7385v15.052c0 2.4059 0.87439 3.8914 3.4454 3.8914 2.6232 0 5.0919-1.4855 7.0452-3.1227v-12.339h-2.9028v-3.4821h7.3249v18.431h3.4245v3.4821h-7.7443v-3.0209c-2.3143 2.0485-5.1942 3.5839-8.4852 3.5839-3.9588 0.0020776-6.4776-2.354-6.4776-6.9622zm25.61 2.9191h3.7021v-14.951h-3.7021v-3.4821h8.0219v3.0728c2.3143-2.0485 5.1942-3.6359 8.4852-3.6359 3.9588 0 6.4797 2.356 6.4797 6.9622v12.032h3.7543v3.4821h-11.88v-3.4821h3.7543v-11.57c0-2.4059-0.87439-3.8914-3.4454-3.8914-2.6232 0-5.142 1.5873-7.0452 3.1746v12.287h3.7021v3.4821h-11.828v-3.48h0.002087zm27.597-7.4753c0-6.9622 4.3198-11.52 11.211-11.52s11.211 4.5563 11.211 11.52c0 7.0141-4.3198 11.52-11.211 11.52s-11.211-4.5064-11.211-11.52zm17.897 0c0-4.7619-2.3143-8.1402-6.6842-8.1402-4.3699 0-6.6863 3.3782-6.6863 8.1402 0 4.7619 2.3143 8.1402 6.6863 8.1402s6.6842-3.3782 6.6842-8.1402z"/>
</svg>
